<?xml version="1.0" encoding="UTF-8"?>
<svg xmlns="http://www.w3.org/2000/svg" xmlns:xlink="http://www.w3.org/1999/xlink" width="20px" height="20px" viewBox="0 0 20 19" version="1.1">
<g id="surface1">
<path style=" stroke:none;fill-rule:nonzero;fill:rgb(100%,100%,100%);fill-opacity:1;" d="M 9.839844 0.0898438 L 9.96875 0.0898438 C 10.890625 0.0859375 11.789062 0.152344 12.671875 0.429688 L 12.808594 0.472656 C 14.304688 0.949219 15.589844 1.683594 16.714844 2.757812 C 16.796875 2.835938 16.878906 2.910156 16.957031 2.988281 C 17.96875 3.933594 18.675781 5.167969 19.136719 6.445312 C 19.167969 6.535156 19.203125 6.621094 19.234375 6.710938 C 19.738281 8.132812 19.976562 10.339844 19.339844 11.753906 C 19.316406 11.84375 19.296875 11.933594 19.277344 12.027344 C 18.703125 14.296875 17.054688 16.328125 15.023438 17.542969 C 14.953125 17.582031 14.886719 17.621094 14.820312 17.65625 L 14.71875 17.71875 C 12.648438 18.929688 9.9375 19.210938 7.601562 18.679688 C 6.910156 18.5 6.257812 18.242188 5.621094 17.925781 L 5.519531 17.878906 C 3.476562 16.898438 1.695312 15.042969 0.9375 12.941406 L 0.882812 12.773438 L 0.8125 12.601562 C -0.0703125 10.25 0.144531 7.667969 1.210938 5.421875 C 1.679688 4.449219 2.316406 3.609375 3.085938 2.84375 L 3.199219 2.726562 C 4.90625 0.976562 7.402344 0.09375 9.839844 0.0898438 Z M 6.667969 1.289062 L 6.503906 1.347656 C 5.089844 1.878906 3.773438 2.84375 2.863281 4.027344 L 2.789062 4.125 C 2.152344 4.949219 1.652344 5.832031 1.324219 6.816406 L 1.257812 7 C 0.683594 8.859375 0.832031 10.925781 1.542969 12.71875 L 1.582031 12.828125 C 2.027344 13.972656 2.777344 14.90625 3.636719 15.78125 L 3.738281 15.886719 C 5.105469 17.296875 7.289062 18.203125 9.261719 18.261719 C 10.707031 18.292969 11.972656 18.171875 13.332031 17.65625 L 13.527344 17.589844 C 14.785156 17.121094 16.011719 16.203125 16.859375 15.1875 L 16.9375 15.097656 C 18.492188 13.210938 19.144531 10.949219 18.933594 8.542969 C 18.910156 8.339844 18.878906 8.144531 18.84375 7.945312 L 18.816406 7.746094 C 18.488281 5.628906 17.066406 3.644531 15.320312 2.386719 C 12.871094 0.671875 9.484375 0.0703125 6.667969 1.289062 Z M 6.667969 1.289062 "/>
<path style=" stroke:none;fill-rule:nonzero;fill:rgb(100%,100%,100%);fill-opacity:1;" d="M 9.265625 8.867188 L 9.433594 8.863281 L 9.613281 8.867188 L 9.796875 8.867188 C 9.925781 8.867188 10.054688 8.867188 10.183594 8.867188 C 10.382812 8.867188 10.582031 8.867188 10.777344 8.867188 C 10.902344 8.867188 11.027344 8.867188 11.152344 8.867188 L 11.335938 8.863281 L 11.5 8.867188 L 11.648438 8.867188 C 11.765625 8.878906 11.765625 8.878906 11.878906 8.992188 C 11.890625 9.128906 11.894531 9.261719 11.894531 9.402344 L 11.894531 9.527344 C 11.898438 9.667969 11.894531 9.808594 11.894531 9.949219 C 11.894531 10.042969 11.894531 10.140625 11.894531 10.238281 C 11.898438 10.441406 11.894531 10.644531 11.894531 10.847656 C 11.894531 11.109375 11.894531 11.367188 11.894531 11.628906 C 11.898438 11.828125 11.894531 12.027344 11.894531 12.230469 C 11.894531 12.324219 11.894531 12.421875 11.894531 12.515625 C 11.898438 12.652344 11.894531 12.785156 11.894531 12.917969 L 11.894531 13.039062 C 11.894531 13.316406 11.894531 13.316406 11.765625 13.441406 C 11.648438 13.453125 11.648438 13.453125 11.5 13.453125 L 11.332031 13.457031 L 10.96875 13.457031 C 10.839844 13.457031 10.710938 13.457031 10.582031 13.457031 C 10.382812 13.457031 10.1875 13.457031 9.988281 13.460938 C 9.863281 13.460938 9.738281 13.460938 9.613281 13.460938 L 9.121094 13.460938 L 9 13.441406 C 8.863281 13.238281 8.871094 13.09375 8.871094 12.863281 L 8.871094 12.738281 C 8.871094 12.597656 8.871094 12.460938 8.871094 12.324219 C 8.871094 12.226562 8.871094 12.132812 8.871094 12.039062 C 8.871094 11.835938 8.871094 11.636719 8.871094 11.4375 C 8.871094 11.179688 8.871094 10.921875 8.871094 10.667969 C 8.871094 10.46875 8.871094 10.273438 8.871094 10.074219 C 8.871094 9.980469 8.871094 9.886719 8.871094 9.792969 C 8.871094 9.660156 8.871094 9.527344 8.871094 9.394531 L 8.871094 9.277344 C 8.875 8.957031 8.9375 8.867188 9.265625 8.867188 Z M 9.265625 8.867188 "/>
<path style=" stroke:none;fill-rule:nonzero;fill:rgb(100%,100%,100%);fill-opacity:1;" d="M 5.859375 8.316406 C 6.832031 8.046875 7.679688 8.195312 8.433594 8.316406 L 8.433594 13.394531 C 7.632812 13.609375 6.746094 13.664062 5.859375 13.394531 Z M 5.859375 8.316406 "/>
<path style=" stroke:none;fill-rule:nonzero;fill:rgb(100%,100%,100%);fill-opacity:1;" d="M 12.523438 3.410156 C 12.6875 3.386719 12.6875 3.386719 12.890625 3.386719 L 13.628906 3.386719 C 13.804688 3.386719 13.984375 3.386719 14.164062 3.390625 C 14.4375 3.390625 14.710938 3.390625 14.984375 3.390625 C 15.15625 3.390625 15.328125 3.390625 15.503906 3.390625 L 15.753906 3.390625 L 15.984375 3.394531 L 16.1875 3.394531 C 16.347656 3.410156 16.347656 3.410156 16.507812 3.542969 C 16.527344 3.710938 16.527344 3.710938 16.527344 3.933594 L 16.53125 4.183594 C 16.53125 4.277344 16.53125 4.367188 16.53125 4.460938 C 16.53125 4.558594 16.53125 4.65625 16.53125 4.75 C 16.53125 5.015625 16.53125 5.277344 16.53125 5.542969 C 16.53125 5.816406 16.53125 6.09375 16.53125 6.367188 C 16.53125 6.832031 16.53125 7.292969 16.53125 7.757812 C 16.527344 8.292969 16.527344 8.828125 16.53125 9.363281 C 16.53125 9.824219 16.53125 10.28125 16.53125 10.742188 C 16.53125 11.015625 16.53125 11.289062 16.53125 11.566406 C 16.53125 11.824219 16.53125 12.082031 16.53125 12.339844 C 16.53125 12.433594 16.53125 12.527344 16.53125 12.625 C 16.53125 12.753906 16.53125 12.882812 16.527344 13.011719 L 16.527344 13.230469 C 16.507812 13.398438 16.507812 13.398438 16.347656 13.53125 C 16.1875 13.546875 16.1875 13.546875 15.984375 13.550781 L 15.246094 13.550781 C 15.070312 13.550781 14.890625 13.550781 14.710938 13.550781 C 14.4375 13.550781 14.164062 13.554688 13.890625 13.554688 C 13.71875 13.554688 13.542969 13.554688 13.371094 13.554688 L 13.121094 13.558594 L 12.890625 13.554688 L 12.6875 13.554688 L 12.523438 13.53125 C 12.339844 13.300781 12.347656 13.214844 12.34375 12.941406 L 12.34375 12.695312 C 12.34375 12.605469 12.34375 12.511719 12.34375 12.421875 C 12.34375 12.328125 12.34375 12.230469 12.34375 12.136719 C 12.34375 11.875 12.34375 11.617188 12.34375 11.355469 C 12.34375 11.085938 12.34375 10.8125 12.34375 10.542969 C 12.34375 10.085938 12.34375 9.628906 12.34375 9.175781 C 12.347656 8.648438 12.34375 8.121094 12.34375 7.59375 C 12.34375 7.140625 12.34375 6.6875 12.34375 6.234375 C 12.34375 5.964844 12.34375 5.695312 12.34375 5.425781 C 12.34375 5.171875 12.34375 4.917969 12.34375 4.664062 C 12.34375 4.570312 12.34375 4.476562 12.34375 4.382812 C 12.34375 4.253906 12.34375 4.128906 12.34375 4 L 12.347656 3.785156 C 12.367188 3.609375 12.367188 3.609375 12.523438 3.410156 Z M 13.003906 3.9375 L 13.003906 13.003906 L 15.871094 13.003906 L 15.871094 3.9375 Z M 13.003906 3.9375 "/>
<path style=" stroke:none;fill-rule:nonzero;fill:rgb(100%,100%,100%);fill-opacity:1;" d="M 2.957031 10.632812 L 3.117188 10.628906 L 3.289062 10.632812 L 3.464844 10.628906 C 3.589844 10.628906 3.710938 10.628906 3.835938 10.632812 C 4.023438 10.632812 4.214844 10.632812 4.402344 10.628906 C 4.523438 10.628906 4.640625 10.628906 4.761719 10.632812 L 4.933594 10.628906 L 5.09375 10.632812 L 5.234375 10.632812 C 5.347656 10.644531 5.347656 10.644531 5.457031 10.753906 C 5.472656 10.859375 5.472656 10.859375 5.472656 10.988281 L 5.472656 11.464844 C 5.472656 11.578125 5.472656 11.695312 5.472656 11.808594 C 5.472656 11.988281 5.472656 12.164062 5.472656 12.339844 C 5.472656 12.453125 5.472656 12.5625 5.472656 12.675781 L 5.472656 13.117188 C 5.457031 13.222656 5.457031 13.222656 5.347656 13.328125 C 5.234375 13.34375 5.234375 13.34375 5.09375 13.34375 L 4.585938 13.34375 C 4.460938 13.34375 4.339844 13.34375 4.214844 13.34375 C 4.027344 13.34375 3.835938 13.34375 3.648438 13.34375 C 3.527344 13.34375 3.40625 13.34375 3.289062 13.34375 L 2.816406 13.34375 C 2.703125 13.328125 2.703125 13.328125 2.59375 13.222656 C 2.578125 13.117188 2.578125 13.117188 2.578125 12.984375 L 2.578125 12.511719 C 2.578125 12.394531 2.578125 12.28125 2.578125 12.164062 C 2.578125 11.988281 2.578125 11.8125 2.578125 11.632812 C 2.578125 11.523438 2.578125 11.410156 2.578125 11.300781 L 2.578125 10.859375 C 2.609375 10.628906 2.753906 10.632812 2.957031 10.632812 Z M 2.957031 10.632812 "/>
<path style=" stroke:none;fill-rule:nonzero;fill:rgb(100%,100%,100%);fill-opacity:1;" d="M 13.601562 6.59375 L 13.601562 4.398438 L 13.902344 4.398438 L 13.902344 5.300781 L 15.089844 5.300781 L 15.089844 4.398438 L 15.390625 4.398438 L 15.390625 6.59375 L 15.089844 6.59375 L 15.089844 5.558594 L 13.902344 5.558594 L 13.902344 6.59375 Z M 13.601562 6.59375 "/>
<path style=" stroke:none;fill-rule:nonzero;fill:rgb(100%,100%,100%);fill-opacity:1;" d="M 13.484375 8.488281 L 14.285156 6.835938 L 14.582031 6.835938 L 15.433594 8.488281 L 15.121094 8.488281 L 14.878906 7.988281 L 14.007812 7.988281 L 13.777344 8.488281 Z M 14.085938 7.808594 L 14.792969 7.808594 L 14.574219 7.351562 C 14.507812 7.214844 14.460938 7.097656 14.425781 7.007812 C 14.402344 7.117188 14.363281 7.222656 14.316406 7.324219 Z M 14.085938 7.808594 "/>
<path style=" stroke:none;fill-rule:nonzero;fill:rgb(100%,100%,100%);fill-opacity:1;" d="M 14.375 10.335938 L 14.375 8.699219 L 14.609375 8.699219 L 14.609375 10.335938 Z M 14.375 10.335938 "/>
<path style=" stroke:none;fill-rule:nonzero;fill:rgb(100%,100%,100%);fill-opacity:1;" d="M 15.078125 11.808594 L 15.328125 11.871094 C 15.273438 12.066406 15.179688 12.214844 15.042969 12.320312 C 14.910156 12.421875 14.746094 12.472656 14.550781 12.472656 C 14.347656 12.472656 14.183594 12.433594 14.054688 12.355469 C 13.929688 12.277344 13.832031 12.160156 13.765625 12.011719 C 13.699219 11.859375 13.667969 11.699219 13.667969 11.527344 C 13.667969 11.339844 13.703125 11.175781 13.777344 11.035156 C 13.851562 10.894531 13.960938 10.789062 14.097656 10.71875 C 14.234375 10.644531 14.386719 10.605469 14.554688 10.605469 C 14.742188 10.605469 14.898438 10.652344 15.027344 10.746094 C 15.15625 10.835938 15.246094 10.964844 15.292969 11.132812 L 15.050781 11.1875 C 15.007812 11.058594 14.941406 10.960938 14.859375 10.902344 C 14.777344 10.839844 14.671875 10.8125 14.546875 10.8125 C 14.402344 10.8125 14.28125 10.84375 14.183594 10.910156 C 14.089844 10.976562 14.019531 11.066406 13.980469 11.179688 C 13.941406 11.292969 13.921875 11.40625 13.921875 11.527344 C 13.921875 11.679688 13.945312 11.8125 13.992188 11.929688 C 14.039062 12.042969 14.113281 12.128906 14.210938 12.183594 C 14.308594 12.242188 14.414062 12.269531 14.527344 12.269531 C 14.667969 12.269531 14.785156 12.230469 14.882812 12.152344 C 14.980469 12.078125 15.042969 11.960938 15.078125 11.808594 Z M 15.078125 11.808594 "/>
<path style=" stroke:none;fill-rule:nonzero;fill:rgb(100%,100%,100%);fill-opacity:1;" d="M 8.664062 1.636719 C 8.773438 1.714844 8.851562 1.824219 8.875 1.953125 C 8.882812 2.03125 8.882812 2.101562 8.859375 2.179688 C 8.855469 2.191406 8.855469 2.203125 8.851562 2.214844 C 8.847656 2.222656 8.84375 2.234375 8.84375 2.242188 C 8.851562 2.25 8.863281 2.253906 8.875 2.261719 C 9.253906 2.476562 9.253906 2.476562 9.402344 2.570312 C 9.410156 2.566406 9.410156 2.566406 9.417969 2.558594 C 9.492188 2.496094 9.492188 2.496094 9.535156 2.476562 C 9.542969 2.472656 9.542969 2.472656 9.554688 2.46875 C 9.644531 2.433594 9.757812 2.433594 9.851562 2.464844 C 9.949219 2.511719 10.027344 2.585938 10.070312 2.683594 C 10.097656 2.800781 10.097656 2.902344 10.035156 3.007812 C 9.980469 3.09375 9.910156 3.140625 9.8125 3.175781 C 9.804688 3.175781 9.796875 3.175781 9.789062 3.175781 C 9.789062 3.195312 9.789062 3.195312 9.789062 3.214844 C 9.792969 3.261719 9.796875 3.308594 9.800781 3.355469 C 9.804688 3.378906 9.804688 3.398438 9.808594 3.417969 C 9.808594 3.449219 9.8125 3.480469 9.816406 3.507812 C 9.816406 3.519531 9.816406 3.527344 9.816406 3.535156 C 9.820312 3.570312 9.824219 3.605469 9.824219 3.640625 C 9.835938 3.640625 9.847656 3.636719 9.863281 3.636719 C 9.984375 3.636719 10.082031 3.703125 10.167969 3.785156 C 10.265625 3.882812 10.308594 4.011719 10.304688 4.144531 C 10.289062 4.28125 10.234375 4.398438 10.128906 4.496094 C 10.023438 4.574219 9.886719 4.621094 9.753906 4.605469 C 9.609375 4.578125 9.519531 4.53125 9.414062 4.433594 C 9.40625 4.441406 9.398438 4.445312 9.394531 4.449219 C 9.34375 4.480469 9.292969 4.511719 9.246094 4.539062 C 9.144531 4.601562 9.042969 4.664062 8.941406 4.730469 C 8.933594 4.734375 8.921875 4.742188 8.914062 4.746094 C 8.90625 4.753906 8.894531 4.757812 8.886719 4.761719 C 8.867188 4.777344 8.867188 4.777344 8.84375 4.789062 C 8.84375 4.792969 8.847656 4.800781 8.847656 4.808594 C 8.875 4.925781 8.878906 5.035156 8.816406 5.144531 C 8.75 5.234375 8.664062 5.292969 8.554688 5.316406 C 8.453125 5.328125 8.367188 5.3125 8.277344 5.265625 C 8.246094 5.242188 8.21875 5.214844 8.191406 5.183594 C 8.183594 5.175781 8.171875 5.167969 8.164062 5.160156 C 8.101562 5.070312 8.105469 4.976562 8.109375 4.867188 C 8.011719 4.824219 7.910156 4.78125 7.8125 4.742188 C 7.785156 4.734375 7.761719 4.722656 7.734375 4.710938 C 7.71875 4.707031 7.703125 4.699219 7.6875 4.691406 C 7.679688 4.691406 7.671875 4.6875 7.664062 4.683594 C 7.625 4.667969 7.625 4.667969 7.582031 4.664062 C 7.570312 4.675781 7.558594 4.691406 7.546875 4.703125 C 7.488281 4.773438 7.417969 4.816406 7.328125 4.832031 C 7.261719 4.835938 7.203125 4.839844 7.140625 4.820312 C 7.136719 4.835938 7.132812 4.851562 7.125 4.863281 C 7.101562 4.941406 7.0625 5.007812 7.027344 5.078125 C 7.023438 5.089844 7.015625 5.097656 7.011719 5.109375 C 7.007812 5.117188 7.003906 5.128906 6.996094 5.136719 C 6.988281 5.167969 6.988281 5.179688 7 5.207031 C 7.015625 5.226562 7.015625 5.226562 7.035156 5.246094 C 7.097656 5.3125 7.097656 5.375 7.097656 5.460938 C 7.089844 5.550781 7.046875 5.613281 6.980469 5.671875 C 6.941406 5.691406 6.902344 5.703125 6.859375 5.71875 C 6.855469 5.820312 6.851562 5.921875 6.847656 6.027344 C 6.875 6.035156 6.902344 6.042969 6.929688 6.046875 C 6.988281 6.085938 7.019531 6.132812 7.042969 6.195312 C 7.054688 6.277344 7.046875 6.339844 7 6.414062 C 6.976562 6.4375 6.957031 6.449219 6.929688 6.46875 C 6.921875 6.46875 6.914062 6.46875 6.90625 6.46875 C 6.914062 6.488281 6.914062 6.488281 6.917969 6.503906 C 6.921875 6.519531 6.925781 6.539062 6.929688 6.554688 C 6.933594 6.5625 6.933594 6.570312 6.9375 6.578125 C 6.953125 6.636719 6.953125 6.636719 6.953125 6.664062 C 6.964844 6.664062 6.980469 6.664062 6.992188 6.664062 C 7.046875 6.671875 7.089844 6.6875 7.140625 6.707031 C 7.65625 6.859375 8.398438 6.59375 8.867188 6.378906 C 8.878906 6.371094 8.878906 6.371094 8.890625 6.367188 C 8.9375 6.34375 8.984375 6.320312 9.03125 6.296875 C 9.050781 6.289062 9.074219 6.277344 9.09375 6.265625 C 9.292969 6.167969 9.472656 6.046875 9.648438 5.914062 C 9.660156 5.902344 9.671875 5.894531 9.683594 5.886719 C 9.949219 5.679688 10.164062 5.4375 10.324219 5.140625 C 10.328125 5.132812 10.332031 5.125 10.335938 5.117188 C 10.515625 4.785156 10.59375 4.40625 10.640625 4.039062 C 10.640625 4.023438 10.640625 4.023438 10.644531 4.007812 C 10.65625 3.886719 10.652344 3.761719 10.652344 3.640625 C 10.652344 3.628906 10.652344 3.613281 10.652344 3.601562 C 10.652344 3.417969 10.648438 3.234375 10.617188 3.050781 C 10.613281 3.03125 10.613281 3.03125 10.609375 3.011719 C 10.585938 2.878906 10.554688 2.753906 10.5 2.628906 C 10.492188 2.613281 10.484375 2.597656 10.476562 2.578125 C 10.472656 2.570312 10.46875 2.558594 10.464844 2.550781 C 10.515625 2.566406 10.539062 2.605469 10.570312 2.644531 C 10.578125 2.652344 10.578125 2.652344 10.589844 2.664062 C 10.871094 3.027344 11.015625 3.46875 11.011719 3.921875 C 11.011719 3.949219 11.011719 3.972656 11.011719 4 C 11.011719 4.074219 11.011719 4.148438 11.011719 4.226562 C 11.011719 4.269531 11.007812 4.316406 11.007812 4.363281 C 11.007812 4.378906 11.007812 4.398438 11.007812 4.414062 C 11.003906 4.730469 11.109375 4.949219 11.308594 5.195312 C 11.367188 5.265625 11.421875 5.339844 11.476562 5.410156 C 11.511719 5.457031 11.546875 5.503906 11.582031 5.546875 C 11.589844 5.554688 11.597656 5.566406 11.605469 5.574219 C 11.617188 5.59375 11.632812 5.609375 11.648438 5.625 C 11.710938 5.703125 11.742188 5.78125 11.738281 5.882812 C 11.738281 5.894531 11.738281 5.90625 11.738281 5.921875 C 11.734375 5.964844 11.730469 5.980469 11.699219 6.015625 C 11.667969 6.035156 11.632812 6.054688 11.59375 6.070312 C 11.585938 6.078125 11.574219 6.082031 11.566406 6.085938 C 11.515625 6.113281 11.464844 6.136719 11.410156 6.15625 C 11.363281 6.171875 11.339844 6.1875 11.316406 6.230469 C 11.296875 6.308594 11.308594 6.34375 11.351562 6.410156 C 11.390625 6.480469 11.421875 6.546875 11.398438 6.628906 C 11.378906 6.660156 11.355469 6.683594 11.328125 6.707031 C 11.320312 6.707031 11.3125 6.707031 11.304688 6.707031 C 11.308594 6.714844 11.3125 6.722656 11.3125 6.730469 C 11.351562 6.8125 11.367188 6.882812 11.339844 6.972656 C 11.300781 7.023438 11.253906 7.066406 11.199219 7.109375 C 11.167969 7.132812 11.15625 7.15625 11.148438 7.195312 C 11.148438 7.207031 11.148438 7.214844 11.148438 7.222656 C 11.148438 7.230469 11.148438 7.242188 11.148438 7.25 C 11.148438 7.261719 11.148438 7.269531 11.148438 7.28125 C 11.148438 7.304688 11.148438 7.324219 11.148438 7.347656 C 11.148438 7.382812 11.148438 7.417969 11.148438 7.449219 C 11.144531 7.832031 11.144531 7.832031 11.046875 7.921875 C 10.792969 8.109375 10.484375 8.148438 10.179688 8.109375 C 10.105469 8.097656 10.035156 8.085938 9.960938 8.070312 C 9.945312 8.066406 9.925781 8.0625 9.90625 8.0625 C 9.855469 8.050781 9.804688 8.042969 9.757812 8.03125 C 9.726562 8.027344 9.699219 8.023438 9.671875 8.015625 C 8.757812 7.84375 7.878906 7.566406 6.960938 7.179688 C 6.949219 7.171875 6.9375 7.167969 6.921875 7.160156 C 6.910156 7.15625 6.898438 7.152344 6.886719 7.144531 C 6.875 7.140625 6.867188 7.136719 6.855469 7.132812 C 6.777344 7.089844 6.738281 7.039062 6.707031 6.957031 C 6.695312 6.890625 6.707031 6.824219 6.742188 6.765625 C 6.773438 6.734375 6.804688 6.710938 6.835938 6.683594 C 6.824219 6.628906 6.8125 6.574219 6.800781 6.515625 C 6.785156 6.511719 6.765625 6.503906 6.75 6.5 C 6.664062 6.476562 6.613281 6.441406 6.570312 6.367188 C 6.546875 6.300781 6.542969 6.222656 6.566406 6.15625 C 6.609375 6.089844 6.65625 6.054688 6.730469 6.027344 C 6.734375 5.921875 6.738281 5.816406 6.742188 5.707031 C 6.722656 5.703125 6.699219 5.699219 6.675781 5.695312 C 6.589844 5.664062 6.546875 5.605469 6.511719 5.527344 C 6.484375 5.441406 6.496094 5.355469 6.535156 5.277344 C 6.578125 5.207031 6.640625 5.164062 6.71875 5.140625 C 6.773438 5.136719 6.828125 5.136719 6.882812 5.140625 C 6.886719 5.125 6.894531 5.113281 6.898438 5.097656 C 6.921875 5.027344 6.953125 4.960938 6.984375 4.894531 C 6.992188 4.882812 6.996094 4.871094 7.003906 4.855469 C 7.019531 4.828125 7.03125 4.796875 7.046875 4.765625 C 7.035156 4.761719 7.035156 4.761719 7.023438 4.753906 C 6.957031 4.71875 6.917969 4.648438 6.890625 4.582031 C 6.867188 4.488281 6.875 4.390625 6.90625 4.300781 C 6.777344 4.207031 6.644531 4.117188 6.511719 4.027344 C 6.476562 4.003906 6.4375 3.976562 6.402344 3.953125 C 6.390625 3.945312 6.378906 3.9375 6.363281 3.929688 C 6.339844 3.914062 6.316406 3.898438 6.296875 3.882812 C 6.242188 3.847656 6.191406 3.8125 6.136719 3.777344 C 6.105469 3.792969 6.078125 3.808594 6.046875 3.832031 C 5.929688 3.921875 5.804688 3.933594 5.660156 3.925781 C 5.527344 3.898438 5.40625 3.828125 5.332031 3.71875 C 5.257812 3.59375 5.230469 3.472656 5.257812 3.328125 C 5.296875 3.195312 5.375 3.085938 5.496094 3.011719 C 5.617188 2.949219 5.765625 2.9375 5.898438 2.972656 C 5.945312 2.988281 5.988281 3.007812 6.03125 3.027344 C 6.085938 2.96875 6.140625 2.910156 6.191406 2.851562 C 6.222656 2.808594 6.257812 2.769531 6.292969 2.730469 C 6.367188 2.65625 6.433594 2.574219 6.5 2.492188 C 6.492188 2.480469 6.492188 2.480469 6.488281 2.472656 C 6.429688 2.363281 6.398438 2.261719 6.429688 2.140625 C 6.46875 2.03125 6.535156 1.960938 6.636719 1.902344 C 6.726562 1.859375 6.851562 1.863281 6.945312 1.898438 C 7.039062 1.9375 7.109375 2.007812 7.152344 2.09375 C 7.15625 2.109375 7.160156 2.125 7.164062 2.140625 C 7.171875 2.140625 7.179688 2.136719 7.191406 2.136719 C 7.273438 2.125 7.355469 2.117188 7.4375 2.105469 C 7.476562 2.097656 7.519531 2.09375 7.5625 2.089844 C 7.601562 2.082031 7.644531 2.078125 7.683594 2.074219 C 7.707031 2.070312 7.730469 2.066406 7.753906 2.0625 C 7.769531 2.0625 7.78125 2.058594 7.796875 2.058594 C 7.808594 2.054688 7.820312 2.054688 7.835938 2.054688 C 7.863281 2.050781 7.863281 2.050781 7.886719 2.050781 C 7.886719 2.042969 7.886719 2.035156 7.886719 2.027344 C 7.878906 1.894531 7.933594 1.785156 8.027344 1.6875 C 8.210938 1.527344 8.460938 1.515625 8.664062 1.636719 Z M 7.808594 2.160156 C 7.792969 2.160156 7.78125 2.164062 7.765625 2.164062 C 7.75 2.167969 7.734375 2.167969 7.71875 2.171875 C 7.703125 2.171875 7.6875 2.175781 7.671875 2.179688 C 7.632812 2.183594 7.589844 2.1875 7.550781 2.195312 C 7.507812 2.199219 7.464844 2.203125 7.421875 2.210938 C 7.339844 2.222656 7.257812 2.230469 7.175781 2.242188 C 7.175781 2.25 7.171875 2.257812 7.171875 2.269531 C 7.167969 2.277344 7.167969 2.289062 7.164062 2.300781 C 7.164062 2.3125 7.160156 2.324219 7.160156 2.335938 C 7.136719 2.433594 7.074219 2.503906 6.992188 2.558594 C 6.898438 2.613281 6.804688 2.613281 6.695312 2.59375 C 6.660156 2.585938 6.625 2.574219 6.59375 2.5625 C 6.519531 2.636719 6.449219 2.710938 6.382812 2.792969 C 6.351562 2.832031 6.316406 2.867188 6.28125 2.90625 C 6.242188 2.949219 6.207031 2.992188 6.171875 3.035156 C 6.152344 3.054688 6.136719 3.074219 6.113281 3.09375 C 6.128906 3.121094 6.144531 3.152344 6.15625 3.179688 C 6.164062 3.191406 6.171875 3.207031 6.179688 3.21875 C 6.183594 3.226562 6.1875 3.234375 6.191406 3.242188 C 6.207031 3.273438 6.21875 3.300781 6.230469 3.332031 C 6.308594 3.335938 6.386719 3.328125 6.460938 3.320312 C 6.472656 3.320312 6.484375 3.320312 6.5 3.316406 C 6.523438 3.316406 6.546875 3.3125 6.570312 3.308594 C 6.609375 3.304688 6.648438 3.300781 6.683594 3.296875 C 6.710938 3.296875 6.734375 3.292969 6.757812 3.289062 C 6.769531 3.289062 6.78125 3.289062 6.792969 3.285156 C 6.800781 3.285156 6.8125 3.285156 6.824219 3.28125 C 6.835938 3.28125 6.835938 3.28125 6.851562 3.28125 C 6.871094 3.277344 6.871094 3.277344 6.882812 3.265625 C 6.886719 3.25 6.890625 3.230469 6.890625 3.214844 C 6.910156 3.121094 6.953125 3.046875 7.03125 2.988281 C 7.121094 2.929688 7.21875 2.910156 7.328125 2.925781 C 7.375 2.9375 7.421875 2.953125 7.46875 2.96875 C 7.515625 2.925781 7.554688 2.882812 7.597656 2.832031 C 7.640625 2.78125 7.683594 2.734375 7.730469 2.6875 C 7.785156 2.628906 7.835938 2.570312 7.886719 2.511719 C 7.921875 2.464844 7.964844 2.421875 8.003906 2.378906 C 7.984375 2.335938 7.964844 2.292969 7.945312 2.253906 C 7.925781 2.21875 7.910156 2.1875 7.898438 2.152344 C 7.867188 2.152344 7.839844 2.15625 7.808594 2.160156 Z M 8.773438 2.332031 C 8.761719 2.347656 8.746094 2.359375 8.734375 2.375 C 8.664062 2.445312 8.574219 2.480469 8.480469 2.515625 C 8.480469 2.59375 8.484375 2.671875 8.492188 2.75 C 8.492188 2.757812 8.492188 2.769531 8.496094 2.78125 C 8.496094 2.804688 8.5 2.828125 8.5 2.851562 C 8.503906 2.886719 8.507812 2.917969 8.511719 2.953125 C 8.511719 2.976562 8.515625 3 8.515625 3.019531 C 8.519531 3.03125 8.519531 3.042969 8.519531 3.054688 C 8.519531 3.0625 8.523438 3.074219 8.523438 3.082031 C 8.523438 3.089844 8.523438 3.097656 8.523438 3.109375 C 8.527344 3.128906 8.527344 3.128906 8.539062 3.152344 C 8.5625 3.160156 8.585938 3.167969 8.613281 3.171875 C 8.679688 3.191406 8.734375 3.210938 8.78125 3.261719 C 8.796875 3.28125 8.796875 3.28125 8.820312 3.273438 C 8.863281 3.261719 8.898438 3.242188 8.933594 3.21875 C 8.949219 3.207031 8.964844 3.199219 8.980469 3.1875 C 8.992188 3.183594 9 3.175781 9.007812 3.171875 C 9.046875 3.148438 9.082031 3.125 9.121094 3.105469 C 9.132812 3.097656 9.148438 3.089844 9.164062 3.082031 C 9.183594 3.066406 9.203125 3.054688 9.226562 3.042969 C 9.246094 3.03125 9.265625 3.019531 9.285156 3.007812 C 9.296875 3.003906 9.304688 2.996094 9.320312 2.988281 C 9.347656 2.972656 9.347656 2.972656 9.355469 2.9375 C 9.351562 2.925781 9.347656 2.914062 9.34375 2.902344 C 9.34375 2.871094 9.34375 2.84375 9.34375 2.8125 C 9.34375 2.804688 9.34375 2.796875 9.34375 2.789062 C 9.34375 2.746094 9.347656 2.707031 9.355469 2.664062 C 9.347656 2.660156 9.339844 2.65625 9.332031 2.648438 C 9.296875 2.628906 9.257812 2.609375 9.222656 2.585938 C 9.214844 2.585938 9.207031 2.582031 9.199219 2.578125 C 9.089844 2.511719 8.976562 2.449219 8.867188 2.382812 C 8.855469 2.375 8.84375 2.367188 8.832031 2.363281 C 8.824219 2.355469 8.816406 2.351562 8.804688 2.34375 C 8.789062 2.332031 8.789062 2.332031 8.773438 2.332031 Z M 8.085938 2.4375 C 8.046875 2.476562 8.007812 2.519531 7.972656 2.5625 C 7.914062 2.628906 7.855469 2.695312 7.796875 2.757812 C 7.746094 2.808594 7.699219 2.863281 7.65625 2.917969 C 7.621094 2.960938 7.585938 3 7.546875 3.039062 C 7.554688 3.046875 7.558594 3.058594 7.5625 3.066406 C 7.570312 3.078125 7.578125 3.089844 7.582031 3.105469 C 7.59375 3.125 7.59375 3.125 7.601562 3.140625 C 7.625 3.191406 7.628906 3.246094 7.628906 3.300781 C 7.804688 3.335938 7.980469 3.371094 8.15625 3.402344 C 8.160156 3.394531 8.164062 3.386719 8.167969 3.378906 C 8.234375 3.257812 8.296875 3.214844 8.433594 3.164062 C 8.414062 2.953125 8.394531 2.742188 8.375 2.527344 C 8.324219 2.515625 8.269531 2.503906 8.214844 2.492188 C 8.167969 2.472656 8.128906 2.457031 8.085938 2.4375 Z M 9.402344 3.050781 C 9.222656 3.15625 9.046875 3.261719 8.867188 3.367188 C 8.867188 3.375 8.871094 3.382812 8.871094 3.390625 C 8.878906 3.4375 8.878906 3.484375 8.878906 3.53125 C 8.878906 3.539062 8.878906 3.550781 8.878906 3.558594 C 8.878906 3.582031 8.878906 3.605469 8.878906 3.628906 C 8.929688 3.652344 8.980469 3.679688 9.03125 3.703125 C 9.054688 3.714844 9.078125 3.726562 9.101562 3.738281 C 9.140625 3.757812 9.179688 3.777344 9.21875 3.796875 C 9.230469 3.800781 9.246094 3.808594 9.257812 3.8125 C 9.269531 3.820312 9.28125 3.824219 9.292969 3.832031 C 9.304688 3.835938 9.316406 3.84375 9.328125 3.847656 C 9.355469 3.859375 9.355469 3.859375 9.382812 3.847656 C 9.40625 3.832031 9.417969 3.816406 9.433594 3.796875 C 9.507812 3.707031 9.609375 3.679688 9.71875 3.640625 C 9.699219 3.414062 9.699219 3.414062 9.683594 3.1875 C 9.636719 3.171875 9.589844 3.15625 9.542969 3.140625 C 9.507812 3.117188 9.472656 3.097656 9.4375 3.070312 C 9.425781 3.066406 9.414062 3.058594 9.402344 3.050781 Z M 6.648438 3.390625 C 6.632812 3.394531 6.632812 3.394531 6.613281 3.394531 C 6.578125 3.398438 6.539062 3.402344 6.503906 3.40625 C 6.476562 3.410156 6.453125 3.414062 6.425781 3.414062 C 6.367188 3.421875 6.304688 3.429688 6.242188 3.4375 C 6.242188 3.445312 6.238281 3.453125 6.238281 3.464844 C 6.226562 3.539062 6.214844 3.605469 6.183594 3.675781 C 6.296875 3.753906 6.410156 3.835938 6.527344 3.910156 C 6.605469 3.960938 6.683594 4.015625 6.757812 4.066406 C 6.773438 4.078125 6.773438 4.078125 6.792969 4.089844 C 6.851562 4.128906 6.90625 4.167969 6.964844 4.207031 C 6.996094 4.191406 7.027344 4.175781 7.054688 4.15625 C 7.148438 4.101562 7.253906 4.089844 7.359375 4.113281 C 7.457031 4.144531 7.539062 4.199219 7.589844 4.285156 C 7.621094 4.359375 7.632812 4.425781 7.628906 4.5 C 7.628906 4.511719 7.628906 4.523438 7.628906 4.535156 C 7.628906 4.546875 7.628906 4.546875 7.628906 4.558594 C 7.699219 4.589844 7.769531 4.617188 7.835938 4.644531 C 7.859375 4.652344 7.882812 4.660156 7.90625 4.671875 C 7.941406 4.683594 7.976562 4.699219 8.007812 4.710938 C 8.019531 4.714844 8.03125 4.71875 8.039062 4.722656 C 8.050781 4.726562 8.058594 4.730469 8.070312 4.734375 C 8.078125 4.738281 8.085938 4.742188 8.097656 4.746094 C 8.125 4.753906 8.125 4.753906 8.167969 4.753906 C 8.195312 4.730469 8.195312 4.730469 8.214844 4.695312 C 8.207031 4.664062 8.195312 4.640625 8.175781 4.613281 C 8.167969 4.605469 8.164062 4.597656 8.160156 4.589844 C 8.152344 4.582031 8.148438 4.574219 8.140625 4.566406 C 8.132812 4.550781 8.132812 4.550781 8.121094 4.539062 C 8.101562 4.511719 8.082031 4.484375 8.0625 4.457031 C 8.050781 4.441406 8.035156 4.425781 8.023438 4.40625 C 7.984375 4.355469 7.949219 4.304688 7.910156 4.253906 C 7.828125 4.144531 7.75 4.039062 7.671875 3.929688 C 7.621094 3.859375 7.566406 3.789062 7.515625 3.71875 C 7.507812 3.710938 7.503906 3.703125 7.496094 3.691406 C 7.492188 3.6875 7.488281 3.679688 7.480469 3.671875 C 7.46875 3.652344 7.457031 3.636719 7.445312 3.617188 C 7.4375 3.617188 7.429688 3.621094 7.421875 3.621094 C 7.296875 3.652344 7.175781 3.65625 7.058594 3.59375 C 6.972656 3.539062 6.929688 3.472656 6.894531 3.378906 C 6.8125 3.378906 6.730469 3.382812 6.648438 3.390625 Z M 7.617188 3.402344 C 7.597656 3.429688 7.597656 3.429688 7.578125 3.460938 C 7.570312 3.472656 7.5625 3.484375 7.554688 3.496094 C 7.535156 3.527344 7.535156 3.527344 7.523438 3.5625 C 7.542969 3.589844 7.5625 3.617188 7.585938 3.648438 C 7.589844 3.65625 7.597656 3.664062 7.605469 3.671875 C 7.617188 3.691406 7.632812 3.707031 7.644531 3.726562 C 7.664062 3.753906 7.683594 3.777344 7.703125 3.804688 C 7.734375 3.847656 7.765625 3.890625 7.796875 3.933594 C 7.828125 3.976562 7.863281 4.019531 7.894531 4.0625 C 7.902344 4.070312 7.90625 4.082031 7.914062 4.089844 C 7.953125 4.140625 7.988281 4.191406 8.027344 4.242188 C 8.070312 4.304688 8.117188 4.367188 8.164062 4.429688 C 8.171875 4.4375 8.175781 4.445312 8.183594 4.453125 C 8.222656 4.507812 8.265625 4.5625 8.304688 4.617188 C 8.328125 4.613281 8.347656 4.605469 8.371094 4.601562 C 8.382812 4.597656 8.394531 4.597656 8.40625 4.59375 C 8.4375 4.585938 8.4375 4.585938 8.445312 4.558594 C 8.449219 4.539062 8.449219 4.515625 8.449219 4.496094 C 8.449219 4.480469 8.449219 4.46875 8.449219 4.453125 C 8.449219 4.4375 8.449219 4.425781 8.449219 4.410156 C 8.449219 4.394531 8.449219 4.378906 8.449219 4.363281 C 8.453125 4.324219 8.453125 4.28125 8.453125 4.242188 C 8.453125 4.203125 8.453125 4.160156 8.453125 4.121094 C 8.457031 4.039062 8.457031 3.960938 8.457031 3.878906 C 8.449219 3.875 8.441406 3.871094 8.433594 3.871094 C 8.421875 3.867188 8.410156 3.863281 8.398438 3.859375 C 8.386719 3.855469 8.375 3.851562 8.363281 3.847656 C 8.277344 3.8125 8.226562 3.761719 8.179688 3.683594 C 8.15625 3.625 8.148438 3.566406 8.144531 3.503906 C 8.042969 3.476562 7.941406 3.457031 7.839844 3.4375 C 7.816406 3.433594 7.789062 3.429688 7.765625 3.425781 C 7.691406 3.410156 7.691406 3.410156 7.617188 3.402344 Z M 8.820312 3.730469 C 8.804688 3.746094 8.792969 3.765625 8.78125 3.78125 C 8.722656 3.839844 8.644531 3.863281 8.5625 3.878906 C 8.550781 4.027344 8.546875 4.175781 8.546875 4.328125 C 8.542969 4.351562 8.542969 4.375 8.542969 4.402344 C 8.542969 4.460938 8.542969 4.523438 8.539062 4.582031 C 8.550781 4.585938 8.5625 4.589844 8.570312 4.59375 C 8.585938 4.597656 8.597656 4.605469 8.613281 4.609375 C 8.625 4.613281 8.640625 4.621094 8.652344 4.625 C 8.6875 4.636719 8.707031 4.648438 8.734375 4.671875 C 8.746094 4.683594 8.746094 4.683594 8.761719 4.695312 C 8.804688 4.691406 8.832031 4.671875 8.867188 4.648438 C 8.878906 4.644531 8.890625 4.636719 8.902344 4.628906 C 8.921875 4.617188 8.921875 4.617188 8.941406 4.605469 C 8.953125 4.59375 8.96875 4.585938 8.980469 4.578125 C 9.019531 4.554688 9.058594 4.527344 9.101562 4.503906 C 9.117188 4.492188 9.117188 4.492188 9.136719 4.480469 C 9.171875 4.457031 9.207031 4.4375 9.238281 4.414062 C 9.25 4.40625 9.261719 4.402344 9.269531 4.394531 C 9.28125 4.386719 9.289062 4.382812 9.300781 4.375 C 9.308594 4.371094 9.316406 4.363281 9.324219 4.359375 C 9.347656 4.34375 9.347656 4.34375 9.355469 4.320312 C 9.351562 4.308594 9.34375 4.296875 9.339844 4.285156 C 9.296875 4.175781 9.308594 4.070312 9.332031 3.957031 C 9.21875 3.902344 9.105469 3.847656 8.992188 3.792969 C 8.976562 3.789062 8.964844 3.78125 8.953125 3.773438 C 8.941406 3.769531 8.929688 3.761719 8.914062 3.757812 C 8.898438 3.75 8.898438 3.75 8.882812 3.742188 C 8.855469 3.730469 8.855469 3.730469 8.820312 3.730469 Z M 8.820312 3.730469 "/>
<path style=" stroke:none;fill-rule:nonzero;fill:rgb(100%,100%,100%);fill-opacity:1;" d="M 10.945312 14.039062 C 10.992188 14.074219 11.03125 14.117188 11.054688 14.167969 L 11.0625 14.179688 C 11.085938 14.222656 11.105469 14.265625 11.128906 14.308594 C 11.148438 14.351562 11.167969 14.390625 11.1875 14.429688 L 11.195312 14.445312 C 11.207031 14.46875 11.222656 14.496094 11.234375 14.519531 C 11.269531 14.578125 11.300781 14.640625 11.332031 14.703125 L 11.339844 14.71875 C 11.355469 14.75 11.375 14.785156 11.390625 14.820312 C 11.40625 14.847656 11.417969 14.875 11.433594 14.902344 C 11.4375 14.914062 11.445312 14.925781 11.449219 14.9375 C 11.472656 14.980469 11.496094 15.019531 11.519531 15.0625 C 11.546875 15.121094 11.578125 15.175781 11.609375 15.234375 C 11.613281 15.246094 11.617188 15.253906 11.625 15.265625 C 11.632812 15.285156 11.644531 15.308594 11.65625 15.328125 C 11.667969 15.355469 11.683594 15.382812 11.699219 15.410156 C 11.707031 15.429688 11.71875 15.453125 11.730469 15.472656 C 11.734375 15.484375 11.742188 15.492188 11.746094 15.503906 C 11.753906 15.515625 11.761719 15.53125 11.765625 15.542969 L 11.773438 15.558594 C 11.8125 15.632812 11.8125 15.632812 11.8125 15.660156 L 11.8125 15.699219 C 11.808594 15.753906 11.796875 15.800781 11.757812 15.839844 C 11.691406 15.898438 11.628906 15.921875 11.539062 15.917969 C 11.472656 15.914062 11.429688 15.882812 11.390625 15.835938 C 11.347656 15.789062 11.320312 15.730469 11.296875 15.671875 C 11.265625 15.613281 11.234375 15.550781 11.203125 15.492188 C 11.152344 15.390625 11.097656 15.289062 11.046875 15.1875 C 11.019531 15.132812 10.988281 15.078125 10.960938 15.023438 C 10.9375 14.984375 10.917969 14.941406 10.894531 14.902344 C 10.871094 14.855469 10.847656 14.808594 10.820312 14.761719 C 10.769531 14.855469 10.71875 14.949219 10.671875 15.046875 C 10.660156 15.066406 10.648438 15.089844 10.636719 15.109375 C 10.609375 15.167969 10.582031 15.222656 10.550781 15.277344 C 10.519531 15.339844 10.488281 15.398438 10.460938 15.457031 C 10.449219 15.480469 10.4375 15.5 10.425781 15.523438 C 10.25 15.867188 10.25 15.867188 10.160156 15.90625 C 10.097656 15.925781 10.023438 15.925781 9.964844 15.902344 C 9.90625 15.867188 9.855469 15.8125 9.835938 15.746094 C 9.820312 15.664062 9.851562 15.59375 9.886719 15.519531 L 9.898438 15.5 C 9.933594 15.429688 9.96875 15.359375 10.007812 15.289062 C 10.058594 15.1875 10.113281 15.085938 10.164062 14.984375 C 10.191406 14.929688 10.222656 14.875 10.25 14.820312 C 10.277344 14.773438 10.300781 14.722656 10.328125 14.675781 L 10.332031 14.664062 C 10.347656 14.636719 10.363281 14.609375 10.375 14.578125 C 10.390625 14.546875 10.40625 14.515625 10.425781 14.484375 L 10.429688 14.472656 C 10.457031 14.421875 10.480469 14.375 10.507812 14.324219 C 10.523438 14.292969 10.539062 14.265625 10.554688 14.234375 L 10.558594 14.226562 C 10.566406 14.210938 10.574219 14.195312 10.582031 14.179688 C 10.617188 14.105469 10.660156 14.050781 10.738281 14.019531 C 10.800781 14.003906 10.890625 14.003906 10.945312 14.039062 Z M 10.945312 14.039062 "/>
<path style=" stroke:none;fill-rule:nonzero;fill:rgb(100%,100%,100%);fill-opacity:1;" d="M 7.722656 14.4375 C 7.746094 14.453125 7.765625 14.472656 7.773438 14.5 C 7.777344 14.519531 7.777344 14.535156 7.78125 14.550781 L 7.796875 14.539062 C 7.9375 14.445312 8.097656 14.410156 8.265625 14.433594 C 8.417969 14.460938 8.523438 14.542969 8.628906 14.644531 C 8.632812 14.652344 8.640625 14.65625 8.644531 14.664062 L 8.652344 14.65625 C 8.675781 14.632812 8.695312 14.609375 8.71875 14.585938 L 8.734375 14.574219 C 8.851562 14.464844 9.003906 14.425781 9.164062 14.429688 C 9.324219 14.433594 9.460938 14.503906 9.574219 14.609375 C 9.695312 14.738281 9.734375 14.890625 9.734375 15.058594 C 9.734375 15.066406 9.734375 15.074219 9.734375 15.085938 C 9.734375 15.105469 9.734375 15.128906 9.734375 15.152344 C 9.734375 15.171875 9.734375 15.1875 9.734375 15.207031 C 9.734375 15.25 9.734375 15.296875 9.734375 15.339844 C 9.734375 15.386719 9.734375 15.429688 9.734375 15.476562 C 9.734375 15.515625 9.734375 15.554688 9.734375 15.59375 C 9.734375 15.617188 9.734375 15.640625 9.734375 15.664062 C 9.734375 15.6875 9.734375 15.710938 9.734375 15.730469 C 9.734375 15.742188 9.734375 15.753906 9.734375 15.765625 C 9.734375 15.851562 9.734375 15.851562 9.707031 15.882812 C 9.671875 15.910156 9.648438 15.917969 9.605469 15.917969 C 9.574219 15.914062 9.550781 15.898438 9.527344 15.875 C 9.511719 15.855469 9.507812 15.835938 9.507812 15.808594 L 9.507812 15.765625 C 9.507812 15.757812 9.507812 15.75 9.507812 15.742188 C 9.507812 15.722656 9.507812 15.707031 9.507812 15.6875 C 9.507812 15.660156 9.507812 15.632812 9.507812 15.605469 C 9.507812 15.523438 9.507812 15.445312 9.507812 15.367188 C 9.507812 15.324219 9.507812 15.277344 9.507812 15.234375 C 9.507812 15.207031 9.507812 15.179688 9.507812 15.152344 C 9.507812 15.132812 9.507812 15.117188 9.507812 15.101562 C 9.507812 15.089844 9.507812 15.078125 9.507812 15.066406 C 9.503906 14.949219 9.480469 14.84375 9.398438 14.757812 C 9.320312 14.683594 9.222656 14.648438 9.113281 14.652344 C 9.011719 14.65625 8.925781 14.699219 8.851562 14.769531 C 8.78125 14.847656 8.761719 14.929688 8.761719 15.03125 C 8.761719 15.039062 8.761719 15.046875 8.761719 15.054688 C 8.761719 15.074219 8.761719 15.09375 8.761719 15.109375 C 8.761719 15.140625 8.761719 15.167969 8.761719 15.195312 C 8.761719 15.269531 8.761719 15.339844 8.761719 15.410156 C 8.761719 15.464844 8.761719 15.523438 8.761719 15.578125 C 8.757812 15.605469 8.757812 15.632812 8.757812 15.664062 C 8.757812 15.679688 8.757812 15.699219 8.757812 15.714844 C 8.757812 15.726562 8.757812 15.742188 8.757812 15.753906 C 8.757812 15.800781 8.757812 15.84375 8.722656 15.886719 C 8.691406 15.910156 8.667969 15.917969 8.628906 15.917969 C 8.59375 15.914062 8.570312 15.898438 8.546875 15.871094 C 8.53125 15.84375 8.527344 15.820312 8.527344 15.789062 L 8.527344 15.742188 C 8.527344 15.734375 8.527344 15.726562 8.527344 15.71875 C 8.527344 15.699219 8.527344 15.683594 8.527344 15.664062 C 8.527344 15.632812 8.527344 15.605469 8.527344 15.578125 C 8.527344 15.496094 8.527344 15.410156 8.527344 15.328125 C 8.527344 15.285156 8.527344 15.238281 8.527344 15.191406 C 8.523438 15.167969 8.523438 15.144531 8.523438 15.121094 C 8.523438 15.097656 8.523438 15.074219 8.523438 15.054688 C 8.523438 15.039062 8.523438 15.027344 8.523438 15.015625 C 8.523438 14.914062 8.488281 14.828125 8.417969 14.753906 C 8.335938 14.679688 8.242188 14.648438 8.132812 14.648438 C 8.019531 14.660156 7.933594 14.707031 7.859375 14.789062 C 7.792969 14.875 7.777344 14.96875 7.78125 15.074219 C 7.78125 15.082031 7.78125 15.09375 7.78125 15.101562 C 7.78125 15.117188 7.78125 15.136719 7.78125 15.152344 C 7.78125 15.183594 7.78125 15.210938 7.777344 15.238281 C 7.777344 15.320312 7.777344 15.398438 7.777344 15.480469 C 7.777344 15.523438 7.777344 15.566406 7.777344 15.613281 C 7.777344 15.640625 7.777344 15.667969 7.777344 15.695312 C 7.777344 15.714844 7.777344 15.730469 7.777344 15.75 C 7.777344 15.761719 7.777344 15.773438 7.777344 15.785156 C 7.777344 15.824219 7.777344 15.851562 7.75 15.886719 C 7.71875 15.910156 7.691406 15.917969 7.648438 15.917969 C 7.613281 15.914062 7.589844 15.894531 7.566406 15.867188 C 7.550781 15.835938 7.550781 15.8125 7.550781 15.78125 L 7.550781 15.761719 C 7.550781 15.746094 7.550781 15.726562 7.550781 15.710938 C 7.550781 15.695312 7.550781 15.683594 7.550781 15.671875 C 7.550781 15.636719 7.550781 15.601562 7.550781 15.566406 C 7.550781 15.542969 7.550781 15.519531 7.550781 15.5 C 7.550781 15.429688 7.550781 15.363281 7.550781 15.292969 C 7.550781 15.214844 7.550781 15.136719 7.550781 15.054688 C 7.550781 14.996094 7.550781 14.933594 7.550781 14.871094 C 7.550781 14.835938 7.550781 14.800781 7.550781 14.761719 C 7.550781 14.726562 7.550781 14.695312 7.550781 14.660156 C 7.550781 14.644531 7.550781 14.632812 7.550781 14.621094 C 7.550781 14.605469 7.550781 14.585938 7.550781 14.570312 L 7.550781 14.554688 C 7.550781 14.515625 7.558594 14.484375 7.585938 14.457031 C 7.625 14.421875 7.675781 14.417969 7.722656 14.4375 Z M 7.722656 14.4375 "/>
<path style=" stroke:none;fill-rule:nonzero;fill:rgb(100%,100%,100%);fill-opacity:1;" d="M 15.558594 14.59375 C 15.710938 14.71875 15.8125 14.878906 15.835938 15.074219 C 15.839844 15.097656 15.839844 15.121094 15.839844 15.148438 L 15.839844 15.164062 C 15.839844 15.199219 15.835938 15.21875 15.8125 15.246094 C 15.777344 15.28125 15.734375 15.285156 15.6875 15.285156 L 15.671875 15.285156 C 15.65625 15.285156 15.640625 15.285156 15.625 15.285156 C 15.613281 15.285156 15.601562 15.285156 15.589844 15.285156 C 15.558594 15.285156 15.527344 15.285156 15.492188 15.285156 C 15.460938 15.285156 15.429688 15.285156 15.394531 15.285156 C 15.332031 15.289062 15.269531 15.289062 15.207031 15.289062 C 15.136719 15.289062 15.0625 15.289062 14.992188 15.289062 C 14.84375 15.289062 14.699219 15.289062 14.550781 15.289062 C 14.554688 15.304688 14.5625 15.320312 14.566406 15.332031 L 14.570312 15.34375 C 14.59375 15.410156 14.628906 15.46875 14.675781 15.519531 L 14.691406 15.535156 C 14.789062 15.636719 14.914062 15.6875 15.050781 15.695312 C 15.1875 15.699219 15.316406 15.660156 15.421875 15.570312 C 15.449219 15.550781 15.480469 15.546875 15.515625 15.550781 C 15.550781 15.558594 15.578125 15.574219 15.597656 15.609375 C 15.609375 15.640625 15.609375 15.667969 15.601562 15.699219 C 15.554688 15.792969 15.425781 15.84375 15.328125 15.882812 C 15.132812 15.945312 14.914062 15.929688 14.730469 15.84375 C 14.546875 15.75 14.40625 15.589844 14.34375 15.398438 C 14.28125 15.199219 14.304688 14.996094 14.402344 14.8125 C 14.5 14.640625 14.664062 14.511719 14.855469 14.457031 C 15.097656 14.386719 15.367188 14.433594 15.558594 14.59375 Z M 14.699219 14.796875 L 14.6875 14.808594 C 14.609375 14.878906 14.570312 14.964844 14.546875 15.0625 L 15.601562 15.0625 C 15.597656 15.023438 15.597656 15.023438 15.585938 14.988281 L 15.578125 14.964844 L 15.570312 14.953125 C 15.511719 14.832031 15.398438 14.730469 15.273438 14.675781 C 15.070312 14.605469 14.855469 14.652344 14.699219 14.796875 Z M 14.699219 14.796875 "/>
<path style=" stroke:none;fill-rule:nonzero;fill:rgb(100%,100%,100%);fill-opacity:1;" d="M 4.480469 13.8125 C 4.519531 13.855469 4.523438 13.894531 4.523438 13.949219 L 4.523438 13.96875 C 4.523438 13.992188 4.523438 14.015625 4.523438 14.039062 C 4.523438 14.054688 4.523438 14.074219 4.523438 14.089844 C 4.523438 14.125 4.523438 14.164062 4.523438 14.203125 C 4.523438 14.246094 4.523438 14.289062 4.523438 14.335938 C 4.523438 14.425781 4.523438 14.515625 4.523438 14.605469 L 4.542969 14.589844 C 4.550781 14.585938 4.558594 14.578125 4.566406 14.574219 L 4.578125 14.5625 C 4.726562 14.445312 4.921875 14.410156 5.109375 14.433594 C 5.300781 14.457031 5.464844 14.558594 5.578125 14.707031 C 5.667969 14.828125 5.714844 14.960938 5.714844 15.109375 L 5.714844 15.132812 C 5.714844 15.15625 5.714844 15.175781 5.714844 15.199219 C 5.714844 15.214844 5.714844 15.234375 5.714844 15.253906 C 5.714844 15.292969 5.714844 15.335938 5.714844 15.378906 C 5.714844 15.421875 5.714844 15.464844 5.714844 15.511719 C 5.714844 15.546875 5.714844 15.585938 5.714844 15.621094 C 5.714844 15.644531 5.714844 15.667969 5.714844 15.691406 C 5.714844 15.714844 5.714844 15.738281 5.714844 15.765625 L 5.714844 15.785156 C 5.714844 15.828125 5.710938 15.859375 5.679688 15.890625 C 5.652344 15.914062 5.621094 15.921875 5.585938 15.917969 C 5.550781 15.914062 5.527344 15.894531 5.503906 15.867188 C 5.492188 15.84375 5.488281 15.828125 5.488281 15.800781 L 5.488281 15.738281 C 5.488281 15.722656 5.488281 15.707031 5.488281 15.6875 C 5.488281 15.664062 5.488281 15.636719 5.488281 15.613281 C 5.488281 15.601562 5.488281 15.59375 5.488281 15.585938 L 5.488281 15.574219 C 5.488281 15.511719 5.488281 15.453125 5.488281 15.394531 C 5.488281 15.351562 5.488281 15.3125 5.484375 15.273438 C 5.484375 15.25 5.484375 15.230469 5.484375 15.207031 C 5.488281 15.054688 5.488281 15.054688 5.433594 14.910156 L 5.429688 14.894531 C 5.410156 14.863281 5.390625 14.835938 5.363281 14.808594 L 5.351562 14.796875 C 5.269531 14.707031 5.152344 14.660156 5.03125 14.652344 C 4.886719 14.648438 4.769531 14.691406 4.664062 14.789062 C 4.570312 14.878906 4.523438 14.992188 4.523438 15.121094 L 4.523438 15.164062 C 4.523438 15.179688 4.523438 15.195312 4.523438 15.214844 C 4.523438 15.238281 4.523438 15.265625 4.523438 15.289062 C 4.523438 15.363281 4.523438 15.433594 4.523438 15.507812 C 4.523438 15.546875 4.523438 15.589844 4.523438 15.628906 C 4.523438 15.648438 4.523438 15.671875 4.523438 15.691406 C 4.523438 15.714844 4.523438 15.738281 4.523438 15.761719 L 4.523438 15.785156 C 4.519531 15.824219 4.519531 15.855469 4.488281 15.886719 L 4.480469 15.894531 L 4.46875 15.902344 C 4.441406 15.921875 4.410156 15.917969 4.375 15.914062 C 4.34375 15.90625 4.324219 15.882812 4.300781 15.855469 C 4.296875 15.835938 4.296875 15.824219 4.296875 15.804688 L 4.296875 15.761719 C 4.296875 15.753906 4.296875 15.746094 4.296875 15.738281 C 4.296875 15.714844 4.296875 15.691406 4.296875 15.671875 C 4.296875 15.644531 4.296875 15.621094 4.296875 15.597656 C 4.296875 15.539062 4.296875 15.480469 4.292969 15.421875 C 4.292969 15.40625 4.292969 15.390625 4.292969 15.375 C 4.292969 15.273438 4.292969 15.171875 4.292969 15.070312 C 4.292969 15.046875 4.292969 15.023438 4.292969 15 L 4.292969 14.980469 C 4.292969 14.886719 4.292969 14.789062 4.292969 14.695312 C 4.292969 14.597656 4.292969 14.5 4.292969 14.402344 C 4.292969 14.347656 4.292969 14.292969 4.292969 14.238281 C 4.292969 14.191406 4.292969 14.144531 4.292969 14.097656 C 4.292969 14.074219 4.292969 14.050781 4.292969 14.027344 C 4.292969 14.003906 4.292969 13.984375 4.292969 13.960938 C 4.292969 13.949219 4.292969 13.9375 4.292969 13.925781 C 4.292969 13.882812 4.296875 13.855469 4.328125 13.820312 C 4.375 13.785156 4.429688 13.785156 4.480469 13.8125 Z M 4.480469 13.8125 "/>
<path style=" stroke:none;fill-rule:nonzero;fill:rgb(100%,100%,100%);fill-opacity:1;" d="M 12.308594 14.03125 C 12.378906 14.070312 12.421875 14.128906 12.445312 14.207031 C 12.449219 14.230469 12.449219 14.25 12.449219 14.273438 L 12.449219 14.289062 C 12.449219 14.3125 12.449219 14.332031 12.449219 14.351562 C 12.449219 14.367188 12.449219 14.382812 12.449219 14.398438 C 12.449219 14.433594 12.449219 14.46875 12.449219 14.507812 C 12.449219 14.535156 12.449219 14.566406 12.449219 14.59375 L 12.449219 14.632812 C 12.449219 14.710938 12.449219 14.792969 12.449219 14.871094 C 12.449219 14.941406 12.449219 15.007812 12.449219 15.078125 C 12.449219 15.15625 12.449219 15.238281 12.449219 15.316406 C 12.449219 15.324219 12.449219 15.332031 12.449219 15.339844 L 12.449219 15.355469 C 12.449219 15.382812 12.449219 15.414062 12.449219 15.441406 C 12.449219 15.480469 12.449219 15.523438 12.449219 15.5625 C 12.449219 15.574219 12.449219 15.589844 12.449219 15.605469 C 12.449219 15.625 12.449219 15.644531 12.449219 15.664062 L 12.449219 15.679688 C 12.449219 15.746094 12.425781 15.804688 12.378906 15.851562 C 12.355469 15.867188 12.332031 15.878906 12.308594 15.890625 L 12.296875 15.898438 C 12.261719 15.914062 12.230469 15.917969 12.1875 15.917969 L 12.171875 15.917969 C 12.132812 15.917969 12.097656 15.914062 12.0625 15.890625 L 12.050781 15.886719 C 11.996094 15.851562 11.953125 15.792969 11.9375 15.734375 C 11.9375 15.714844 11.9375 15.691406 11.9375 15.671875 L 11.9375 15.652344 C 11.9375 15.632812 11.9375 15.609375 11.9375 15.589844 C 11.9375 15.574219 11.9375 15.558594 11.9375 15.542969 C 11.9375 15.507812 11.9375 15.472656 11.9375 15.433594 C 11.9375 15.40625 11.9375 15.375 11.9375 15.34375 L 11.9375 15.332031 C 11.9375 15.324219 11.9375 15.316406 11.9375 15.304688 C 11.9375 15.226562 11.9375 15.144531 11.9375 15.0625 C 11.9375 14.988281 11.9375 14.914062 11.9375 14.839844 C 11.9375 14.765625 11.9375 14.691406 11.9375 14.613281 C 11.9375 14.570312 11.9375 14.527344 11.9375 14.484375 C 11.933594 14.445312 11.933594 14.40625 11.9375 14.367188 C 11.9375 14.351562 11.9375 14.335938 11.9375 14.320312 C 11.933594 14.300781 11.9375 14.28125 11.9375 14.261719 L 11.933594 14.242188 C 11.9375 14.183594 11.953125 14.132812 11.996094 14.085938 C 12.082031 14.019531 12.203125 13.984375 12.308594 14.03125 Z M 12.308594 14.03125 "/>
<path style=" stroke:none;fill-rule:nonzero;fill:rgb(100%,100%,100%);fill-opacity:1;" d="M 6.082031 14.433594 C 6.113281 14.453125 6.136719 14.472656 6.148438 14.507812 C 6.152344 14.523438 6.152344 14.535156 6.152344 14.550781 L 6.152344 14.613281 C 6.152344 14.628906 6.152344 14.648438 6.152344 14.664062 C 6.152344 14.6875 6.152344 14.714844 6.152344 14.738281 C 6.152344 14.75 6.152344 14.757812 6.152344 14.765625 L 6.152344 14.78125 C 6.152344 14.839844 6.152344 14.898438 6.152344 14.957031 C 6.152344 15 6.152344 15.039062 6.152344 15.078125 C 6.152344 15.101562 6.152344 15.121094 6.152344 15.144531 C 6.152344 15.292969 6.164062 15.421875 6.273438 15.535156 L 6.285156 15.550781 C 6.371094 15.640625 6.488281 15.6875 6.613281 15.695312 C 6.730469 15.699219 6.84375 15.664062 6.933594 15.589844 L 6.949219 15.578125 C 7.019531 15.523438 7.070312 15.449219 7.09375 15.363281 L 7.101562 15.347656 C 7.117188 15.269531 7.117188 15.1875 7.117188 15.109375 C 7.117188 15.089844 7.117188 15.066406 7.117188 15.046875 C 7.117188 14.988281 7.117188 14.929688 7.117188 14.871094 C 7.117188 14.820312 7.117188 14.765625 7.117188 14.714844 C 7.117188 14.6875 7.117188 14.664062 7.117188 14.636719 C 7.117188 14.617188 7.117188 14.601562 7.117188 14.582031 L 7.117188 14.558594 C 7.117188 14.519531 7.121094 14.492188 7.148438 14.460938 L 7.160156 14.453125 L 7.171875 14.441406 C 7.199219 14.425781 7.230469 14.425781 7.261719 14.429688 C 7.296875 14.441406 7.316406 14.460938 7.335938 14.488281 C 7.34375 14.511719 7.34375 14.535156 7.34375 14.558594 L 7.34375 14.578125 C 7.34375 14.59375 7.34375 14.613281 7.34375 14.632812 C 7.34375 14.644531 7.34375 14.65625 7.34375 14.671875 C 7.34375 14.707031 7.34375 14.742188 7.34375 14.777344 C 7.34375 14.800781 7.34375 14.820312 7.34375 14.84375 C 7.34375 14.914062 7.34375 14.980469 7.34375 15.050781 C 7.34375 15.132812 7.34375 15.210938 7.34375 15.292969 C 7.34375 15.355469 7.34375 15.414062 7.34375 15.476562 C 7.34375 15.515625 7.34375 15.550781 7.34375 15.589844 C 7.34375 15.621094 7.34375 15.65625 7.34375 15.691406 C 7.34375 15.707031 7.34375 15.71875 7.34375 15.730469 C 7.34375 15.75 7.34375 15.765625 7.34375 15.78125 L 7.34375 15.796875 C 7.34375 15.832031 7.335938 15.859375 7.3125 15.886719 L 7.289062 15.902344 C 7.261719 15.921875 7.230469 15.917969 7.199219 15.914062 C 7.167969 15.90625 7.144531 15.882812 7.125 15.855469 C 7.121094 15.839844 7.117188 15.828125 7.117188 15.8125 L 7.117188 15.785156 L 7.113281 15.769531 C 7.113281 15.757812 7.113281 15.746094 7.113281 15.734375 L 7.101562 15.746094 C 6.960938 15.875 6.785156 15.921875 6.59375 15.917969 C 6.40625 15.910156 6.238281 15.828125 6.109375 15.695312 C 5.988281 15.566406 5.925781 15.417969 5.925781 15.242188 C 5.925781 15.234375 5.925781 15.226562 5.925781 15.21875 C 5.925781 15.199219 5.925781 15.175781 5.925781 15.15625 C 5.925781 15.140625 5.925781 15.128906 5.925781 15.113281 C 5.925781 15.066406 5.925781 15.019531 5.925781 14.972656 C 5.925781 14.925781 5.925781 14.882812 5.925781 14.839844 C 5.925781 14.800781 5.925781 14.761719 5.925781 14.726562 C 5.925781 14.703125 5.925781 14.679688 5.925781 14.65625 C 5.925781 14.632812 5.925781 14.605469 5.925781 14.582031 L 5.925781 14.558594 C 5.925781 14.519531 5.925781 14.492188 5.953125 14.460938 C 5.992188 14.429688 6.035156 14.417969 6.082031 14.433594 Z M 6.082031 14.433594 "/>
<path style=" stroke:none;fill-rule:nonzero;fill:rgb(100%,100%,100%);fill-opacity:1;" d="M 12.851562 14.441406 C 12.882812 14.460938 12.898438 14.480469 12.910156 14.515625 C 12.910156 14.53125 12.910156 14.542969 12.914062 14.5625 L 12.914062 14.574219 C 12.914062 14.582031 12.914062 14.59375 12.914062 14.605469 L 12.929688 14.589844 C 13.09375 14.460938 13.277344 14.414062 13.488281 14.429688 C 13.617188 14.445312 13.742188 14.496094 13.839844 14.578125 L 13.851562 14.589844 C 13.992188 14.703125 14.082031 14.859375 14.101562 15.039062 C 14.105469 15.09375 14.101562 15.152344 14.101562 15.207031 C 14.101562 15.230469 14.101562 15.253906 14.101562 15.273438 C 14.101562 15.3125 14.101562 15.347656 14.101562 15.386719 C 14.101562 15.425781 14.101562 15.46875 14.101562 15.511719 C 14.101562 15.550781 14.101562 15.585938 14.101562 15.625 C 14.101562 15.644531 14.101562 15.667969 14.101562 15.6875 C 14.101562 15.714844 14.101562 15.738281 14.101562 15.761719 L 14.101562 15.785156 C 14.101562 15.824219 14.101562 15.855469 14.070312 15.886719 L 14.0625 15.894531 L 14.050781 15.902344 C 14.023438 15.921875 13.992188 15.917969 13.957031 15.914062 C 13.925781 15.90625 13.90625 15.882812 13.882812 15.855469 C 13.878906 15.835938 13.878906 15.824219 13.878906 15.808594 L 13.878906 15.742188 C 13.878906 15.726562 13.878906 15.710938 13.878906 15.695312 C 13.878906 15.667969 13.878906 15.644531 13.878906 15.617188 C 13.878906 15.609375 13.878906 15.601562 13.878906 15.59375 L 13.878906 15.578125 C 13.875 15.519531 13.875 15.460938 13.875 15.398438 C 13.875 15.359375 13.875 15.320312 13.875 15.277344 C 13.875 15.257812 13.875 15.238281 13.875 15.214844 C 13.878906 15.058594 13.878906 15.058594 13.824219 14.910156 L 13.816406 14.894531 C 13.800781 14.863281 13.777344 14.832031 13.75 14.800781 L 13.738281 14.789062 C 13.65625 14.703125 13.535156 14.65625 13.414062 14.652344 C 13.285156 14.644531 13.171875 14.683594 13.074219 14.765625 L 13.058594 14.777344 C 12.976562 14.855469 12.921875 14.964844 12.914062 15.074219 C 12.914062 15.09375 12.914062 15.113281 12.914062 15.132812 L 12.914062 15.15625 C 12.914062 15.171875 12.914062 15.191406 12.914062 15.207031 C 12.914062 15.230469 12.914062 15.257812 12.914062 15.28125 C 12.914062 15.347656 12.914062 15.410156 12.914062 15.472656 C 12.914062 15.523438 12.914062 15.570312 12.910156 15.621094 C 12.910156 15.648438 12.910156 15.671875 12.910156 15.699219 C 12.910156 15.71875 12.910156 15.738281 12.910156 15.757812 L 12.910156 15.777344 C 12.910156 15.820312 12.90625 15.855469 12.875 15.890625 C 12.84375 15.914062 12.820312 15.917969 12.78125 15.917969 C 12.75 15.914062 12.730469 15.898438 12.710938 15.875 C 12.683594 15.847656 12.683594 15.828125 12.683594 15.792969 L 12.683594 15.773438 C 12.683594 15.757812 12.683594 15.738281 12.683594 15.71875 C 12.683594 15.707031 12.683594 15.695312 12.683594 15.679688 C 12.683594 15.636719 12.683594 15.59375 12.683594 15.550781 C 12.683594 15.535156 12.683594 15.519531 12.683594 15.507812 C 12.683594 15.445312 12.683594 15.382812 12.683594 15.320312 C 12.683594 15.304688 12.683594 15.289062 12.683594 15.273438 L 12.683594 15.261719 C 12.683594 15.195312 12.683594 15.128906 12.683594 15.066406 C 12.683594 15 12.683594 14.933594 12.683594 14.867188 C 12.683594 14.828125 12.683594 14.792969 12.683594 14.753906 C 12.683594 14.71875 12.683594 14.683594 12.683594 14.648438 C 12.683594 14.636719 12.683594 14.625 12.683594 14.609375 C 12.683594 14.59375 12.683594 14.574219 12.683594 14.558594 L 12.683594 14.542969 C 12.683594 14.507812 12.691406 14.480469 12.71875 14.453125 C 12.757812 14.425781 12.808594 14.417969 12.851562 14.441406 Z M 12.851562 14.441406 "/>
</g>
</svg>
