<?xml version="1.0" encoding="UTF-8" standalone="no"?>
<svg
   width="20px"
   height="20px"
   viewBox="0 0 20 19"
   version="1.1"
   id="svg6"
   sodipodi:docname="kfp.svg"
   inkscape:version="1.4 (86a8ad7, 2024-10-11)"
   xmlns:inkscape="http://www.inkscape.org/namespaces/inkscape"
   xmlns:sodipodi="http://sodipodi.sourceforge.net/DTD/sodipodi-0.dtd"
   xmlns="http://www.w3.org/2000/svg"
   xmlns:svg="http://www.w3.org/2000/svg">
  <defs
     id="defs6" />
  <sodipodi:namedview
     id="namedview6"
     pagecolor="#000000"
     bordercolor="#000000"
     borderopacity="0.25"
     inkscape:showpageshadow="2"
     inkscape:pageopacity="0.0"
     inkscape:pagecheckerboard="0"
     inkscape:deskcolor="#d1d1d1"
     inkscape:zoom="59.65"
     inkscape:cx="10.008382"
     inkscape:cy="10"
     inkscape:window-width="3440"
     inkscape:window-height="1411"
     inkscape:window-x="1341"
     inkscape:window-y="682"
     inkscape:window-maximized="1"
     inkscape:current-layer="surface1" />
  <g
     id="surface1">
    <path
       style="fill:#ffffff;fill-opacity:1;fill-rule:nonzero;stroke:none"
       d="m 18.25,5.117188 c 0.210938,0.714843 0.417969,1.429687 0.625,2.144531 0.05859,0.203125 0.121094,0.40625 0.179688,0.617187 0.05859,0.195313 0.113281,0.390625 0.171874,0.589844 0.05078,0.179688 0.105469,0.359375 0.160157,0.546875 C 19.5,9.5 19.5,9.5 19.5,10.230469 18.179688,10.136719 17.402344,9.421875 16.421875,8.632812 16.261719,8.503906 16.097656,8.378906 15.933594,8.25 15.535156,7.9375 15.144531,7.621094 14.75,7.308594 13.683594,8.304688 12.746094,9.375 11.8125,10.488281 11.660156,10.671875 11.503906,10.851562 11.347656,11.039062 10.644531,11.875 9.953125,12.710938 9.304688,13.585938 9.207031,13.722656 9.105469,13.859375 9,14 8.734375,14.363281 8.476562,14.730469 8.214844,15.097656 8.0625,15.257812 7.910156,15.421875 7.75,15.589844 h -1 C 6.570312,12.742188 6.464844,9.917969 6.5,7.0625 8.582031,6.65625 10.667969,6.25 12.75,5.847656 13.078125,5.78125 13.078125,5.78125 13.414062,5.714844 13.957031,5.609375 14.503906,5.507812 15.046875,5.40625 15.34375,5.347656 15.640625,5.289062 15.949219,5.234375 16.730469,5.117188 17.460938,5.09375 18.25,5.117188 Z"
       id="path1"
       sodipodi:nodetypes="cccccccccccccccccccccc" />
    <path
       style="fill:#ffffff;fill-opacity:1;fill-rule:nonzero;stroke:none"
       d="m 14.5,9.011719 c 1.027344,0.207031 1.714844,0.707031 2.53125,1.324219 0.132812,0.101562 0.269531,0.199218 0.40625,0.300781 0.550781,0.414062 1.070312,0.820312 1.5625,1.300781 -0.08594,0.816406 -0.457031,1.296875 -0.984375,1.921875 -0.148437,0.171875 -0.292969,0.34375 -0.441406,0.523437 -0.15625,0.175782 -0.308594,0.355469 -0.464844,0.535157 -0.152344,0.183593 -0.308594,0.363281 -0.464844,0.550781 C 16.261719,15.917969 15.882812,16.363281 15.5,16.808594 14.839844,16.503906 14.265625,16.175781 13.691406,15.738281 13.546875,15.632812 13.40625,15.523438 13.257812,15.410156 13.109375,15.300781 12.964844,15.1875 12.8125,15.070312 12.660156,14.957031 12.511719,14.84375 12.355469,14.726562 11.988281,14.445312 11.617188,14.164062 11.25,13.882812 11.33203,12.550781 12.171875,11.742188 13.015625,10.761719 13.15625,10.59375 13.300781,10.425781 13.445312,10.253906 13.796875,9.835938 14.148438,9.425781 14.5,9.011719 Z"
       id="path2"
       sodipodi:nodetypes="ccccccccccccccccc" />
    <path
       style="fill:#ffffff;fill-opacity:1;fill-rule:nonzero;stroke:none"
       d="m 11.460938,0.941406 c 1.003906,0.351563 1.9375,0.785156 2.882812,1.265625 0.183594,0.09375 0.367188,0.183594 0.558594,0.277344 C 15.351562,2.710938 15.800781,2.9375 16.25,3.167969 16.167969,3.488281 16.085938,3.808594 16,4.140625 14.90625,4.347656 13.8125,4.546875 12.71875,4.75 12.410156,4.808594 12.101562,4.867188 11.78125,4.925781 11.332031,5.007812 11.332031,5.007812 10.875,5.09375 10.460938,5.167969 10.460938,5.167969 10.039062,5.246094 9.265625,5.355469 8.53125,5.378906 7.75,5.359375 7.859375,4.109375 8.5,3.390625 9.296875,2.464844 9.414062,2.320312 9.53125,2.171875 9.652344,2.019531 10.226562,1.347656 10.542969,0.984375 11.460938,0.941406 Z"
       id="path3"
       sodipodi:nodetypes="ccccccccccccc" />
    <path
       style="fill:#ffffff;fill-opacity:1;fill-rule:nonzero;stroke:none"
       d="M 8.25,1.460938 C 8.117188,2.5 7.453125,3.175781 6.796875,3.957031 6.546875,4.257812 6.300781,4.5625 6.054688,4.863281 5.921875,5.019531 5.792969,5.179688 5.65625,5.34375 4.949219,6.21875 4.261719,7.113281 3.578125,8.007812 3.445312,8.179688 3.3125,8.351562 3.175781,8.53125 2.867188,8.933594 2.558594,9.339844 2.25,9.742188 1.921875,9.664062 1.589844,9.582031 1.25,9.5 L 1.71875,7.261719 C 1.761719,7.050781 1.804688,6.839844 1.851562,6.625 1.976562,6.039062 2.109375,5.453125 2.25,4.871094 2.296875,4.644531 2.34375,4.417969 2.394531,4.1875 3.003906,3.277344 3.980469,2.933594 4.96875,2.480469 5.171875,2.382812 5.375,2.285156 5.585938,2.179688 6.574219,1.714844 7.128906,1.460938 8.25,1.460938 Z"
       id="path4"
       sodipodi:nodetypes="ccccccccccccccc" />
    <path
       style="fill:#ffffff;fill-opacity:1;fill-rule:nonzero;stroke:none"
       d="m 4.5,8.769531 h 0.75 c 0.183594,2.925781 0.285156,5.835938 0.25,8.769531 -0.421875,-0.02344 -0.421875,-0.02344 -1,-0.246093 C 4.039062,16.785156 3.628906,16.289062 3.21875,15.742188 3.109375,15.597656 2.996094,15.453125 2.882812,15.304688 1.5,13.496094 1.5,13.496094 1.507812,12.855469 1.855469,11.886719 2.441406,11.1875 3.09375,10.398438 3.28125,10.164062 3.28125,10.164062 3.46875,9.921875 3.792969,9.523438 4.144531,9.144531 4.5,8.769531 Z"
       id="path5"
       sodipodi:nodetypes="cccccccccc" />
    <path
       style="fill:#ffffff;fill-opacity:1;fill-rule:nonzero;stroke:none"
       d="m 10,14.859375 c 1.023438,0.339844 1.746094,0.820313 2.578125,1.492187 0.222656,0.175782 0.441406,0.351563 0.667969,0.535157 0.25,0.203125 0.25,0.203125 0.503906,0.40625 -0.08203,0.324219 -0.164062,0.644531 -0.25,0.976562 C 11.519531,18.511719 9.539062,18.75 7.5,19 7.417969,18.757812 7.335938,18.519531 7.25,18.269531 7.589844,17.742188 7.933594,17.277344 8.328125,16.792969 8.433594,16.660156 8.535156,16.527344 8.644531,16.390625 9.074219,15.851562 9.503906,15.34375 10,14.859375 Z"
       id="path6"
       sodipodi:nodetypes="cccccccccc" />
  </g>
</svg>
